<svg width="24" height="25" viewBox="0 0 24 25" fill="none" xmlns="http://www.w3.org/2000/svg">
<g clip-path="url(#clip0_53_50)">
<path d="M23.5 7.00708C23.3641 6.52231 23.0994 6.08342 22.734 5.73708C22.3583 5.38008 21.8978 5.12471 21.396 4.99508C19.518 4.50008 11.994 4.50008 11.994 4.50008C8.85734 4.46439 5.72144 4.62135 2.60401 4.97008C2.1022 5.10929 1.64257 5.37036 1.26601 5.73008C0.896007 6.08608 0.628007 6.52508 0.488007 7.00608C0.1517 8.81782 -0.0117011 10.6574 6.83166e-06 12.5001C-0.0119932 14.3411 0.151007 16.1801 0.488007 17.9941C0.625007 18.4731 0.892007 18.9101 1.26301 19.2631C1.63401 19.6161 2.09601 19.8711 2.60401 20.0061C4.50701 20.5001 11.994 20.5001 11.994 20.5001C15.1347 20.5358 18.2746 20.3789 21.396 20.0301C21.8978 19.9004 22.3583 19.6451 22.734 19.2881C23.0993 18.9418 23.3637 18.5029 23.499 18.0181C23.8441 16.207 24.0119 14.3667 24 12.5231C24.026 10.6717 23.8584 8.82264 23.5 7.00608V7.00708ZM9.60201 15.9241V9.07708L15.862 12.5011L9.60201 15.9241Z" fill="black"/>
</g>
<defs>
<clipPath id="clip0_53_50">
<rect width="24" height="24" fill="white" transform="translate(0 0.5)"/>
</clipPath>
</defs>
</svg>
